<svg width="30" height="30" viewBox="0 0 30 30" fill="none" xmlns="http://www.w3.org/2000/svg">
<g clip-path="url(#clip0_503_2272)">
<path d="M18.2132 10.7154C19.3966 10.7154 20.356 9.756 20.356 8.57254C20.356 7.38909 19.3966 6.42969 18.2132 6.42969C17.0297 6.42969 16.0703 7.38909 16.0703 8.57254C16.0703 9.756 17.0297 10.7154 18.2132 10.7154Z" stroke="#FF605E" stroke-width="2" stroke-linecap="round" stroke-linejoin="round"/>
<path d="M9.64174 21.43C10.2335 21.43 10.7132 20.9503 10.7132 20.3585C10.7132 19.7668 10.2335 19.2871 9.64174 19.2871C9.05001 19.2871 8.57031 19.7668 8.57031 20.3585C8.57031 20.9503 9.05001 21.43 9.64174 21.43Z" stroke="#FF605E" stroke-width="2" stroke-linecap="round" stroke-linejoin="round"/>
<path d="M9.64286 13.9302C10.8263 13.9302 11.7857 12.9708 11.7857 11.7874C11.7857 10.6039 10.8263 9.64453 9.64286 9.64453C8.4594 9.64453 7.5 10.6039 7.5 11.7874C7.5 12.9708 8.4594 13.9302 9.64286 13.9302Z" stroke="#FF605E" stroke-width="2" stroke-linecap="round" stroke-linejoin="round"/>
<path d="M20.3992 26.3151C20.3753 25.8994 20.2309 25.4998 19.9835 25.1648C19.7362 24.8301 19.3966 24.5745 19.0064 24.4294C18.0372 24.1108 17.2134 23.457 16.6831 22.5855C16.1529 21.7138 15.951 20.6817 16.1137 19.6745C16.2763 18.6674 16.793 17.7513 17.5707 17.091C18.3484 16.4307 19.3362 16.0695 20.3564 16.0723H24.3635C25.0507 16.0742 25.7285 15.9108 26.3394 15.5958C26.9501 15.2809 27.4764 14.8237 27.8735 14.2627C28.2705 13.7017 28.5268 13.0535 28.6209 12.3727C28.715 11.6919 28.6438 10.9984 28.4135 10.3508C27.5613 7.94434 26.0638 5.81837 24.0851 4.20523C22.1064 2.59207 19.7224 1.55377 17.1936 1.20378C14.6647 0.853789 12.0883 1.20556 9.74579 2.22067C7.40331 3.23578 5.38489 4.87515 3.91103 6.95972C2.43717 9.04427 1.56459 11.4938 1.38861 14.0407C1.21262 16.5876 1.74001 19.1339 2.91317 21.4013C4.0863 23.6687 5.86007 25.5703 8.04068 26.8978C10.2213 28.2255 12.7248 28.9283 15.2778 28.9294C16.5386 28.9328 17.7936 28.7599 19.0064 28.4151C19.4518 28.2904 19.8375 28.0095 20.0932 27.624C20.3489 27.2385 20.4575 26.7741 20.3992 26.3151Z" stroke="#FF605E" stroke-width="2" stroke-linecap="round" stroke-linejoin="round"/>
</g>
<defs>
<clipPath id="clip0_503_2272">
<rect width="30" height="30" fill="white"/>
</clipPath>
</defs>
</svg>
