<svg width="30" height="30" viewBox="0 0 30 30" fill="none" xmlns="http://www.w3.org/2000/svg">
<g clip-path="url(#clip0_503_2266)">
<path d="M28.9286 18.2143L18.8358 28.3071L14.2715 28.9286L14.9143 24.3643L24.9857 14.2715L28.9286 18.2143Z" stroke="#FF605E" stroke-width="2" stroke-linecap="round" stroke-linejoin="round"/>
<path d="M9.17494 28.9294H3.85798C3.11917 28.9294 2.41061 28.6358 1.88818 28.1134C1.36576 27.591 1.07227 26.8826 1.07227 26.1437V3.85798C1.07227 3.11917 1.36576 2.41061 1.88818 1.88818C2.41061 1.36576 3.11917 1.07227 3.85798 1.07227H26.1437C26.8826 1.07227 27.591 1.36576 28.1134 1.88818C28.6358 2.41061 28.9294 3.11917 28.9294 3.85798V10.1794" stroke="#FF605E" stroke-width="2" stroke-linecap="round" stroke-linejoin="round"/>
<path d="M19.3153 10.2751C20.7946 10.2751 21.9939 9.07588 21.9939 7.59654C21.9939 6.11722 20.7946 4.91797 19.3153 4.91797C17.836 4.91797 16.6367 6.11722 16.6367 7.59654C16.6367 9.07588 17.836 10.2751 19.3153 10.2751Z" stroke="#FF605E" stroke-width="2" stroke-linecap="round" stroke-linejoin="round"/>
<path d="M1.07227 15.3504C2.34562 15.1202 3.65722 15 4.99691 15C8.60085 15 12.0017 15.8698 15.0008 17.4109" stroke="#FF605E" stroke-width="2" stroke-linecap="round" stroke-linejoin="round"/>
</g>
<defs>
<clipPath id="clip0_503_2266">
<rect width="30" height="30" fill="white"/>
</clipPath>
</defs>
</svg>
