<svg width="30" height="30" viewBox="0 0 30 30" fill="none" xmlns="http://www.w3.org/2000/svg">
<path d="M24.6443 18.2148H5.35846L3.72989 26.3577C3.66854 26.6691 3.67709 26.9901 3.75492 27.2976C3.83275 27.6051 3.97788 27.8916 4.17989 28.1363C4.37928 28.3821 4.63066 28.5807 4.91596 28.7178C5.20126 28.8548 5.51337 28.927 5.82989 28.9291H24.1728C24.4893 28.927 24.8013 28.8548 25.0868 28.7178C25.372 28.5807 25.6233 28.3821 25.8228 28.1363C26.0247 27.8916 26.17 27.6051 26.2478 27.2976C26.3255 26.9901 26.3341 26.6691 26.2728 26.3577L24.6443 18.2148Z" stroke="#FF605E" stroke-width="2" stroke-linecap="round" stroke-linejoin="round"/>
<path d="M24.6434 11.7866C25.2117 11.7866 25.7568 12.0123 26.1586 12.4142C26.5604 12.816 26.7863 13.3611 26.7863 13.9294V18.2151H3.21484V13.9294C3.21484 13.3611 3.44062 12.816 3.84247 12.4142C4.24434 12.0123 4.78937 11.7866 5.3577 11.7866H8.57199C9.14031 11.7866 9.68535 11.5608 10.0872 11.1589C10.4891 10.7571 10.7148 10.212 10.7148 9.64369V5.35798C10.7148 4.22134 11.1664 3.13125 11.9701 2.32753C12.7738 1.5238 13.8639 1.07227 15.0006 1.07227C16.1372 1.07227 17.2273 1.5238 18.031 2.32753C18.8348 3.13125 19.2863 4.22134 19.2863 5.35798V9.64369C19.2863 10.212 19.512 10.7571 19.9139 11.1589C20.3158 11.5608 20.8608 11.7866 21.4291 11.7866H24.6434Z" stroke="#FF605E" stroke-width="2" stroke-linecap="round" stroke-linejoin="round"/>
<path d="M18.2148 28.9294V23.5723" stroke="#FF605E" stroke-width="2" stroke-linecap="round" stroke-linejoin="round"/>
</svg>
