<svg width="30" height="30" viewBox="0 0 30 30" fill="none" xmlns="http://www.w3.org/2000/svg">
<path d="M15.0006 9.96609C17.2328 9.96609 19.0423 8.15658 19.0423 5.92445C19.0423 3.69232 17.2328 1.88281 15.0006 1.88281C12.7685 1.88281 10.959 3.69232 10.959 5.92445C10.959 8.15658 12.7685 9.96609 15.0006 9.96609Z" stroke="#FF605E" stroke-width="2" stroke-linecap="round" stroke-linejoin="round"/>
<path d="M22.0735 17.0397C22.0735 15.1638 21.3283 13.3648 20.0019 12.0384C18.6755 10.712 16.8765 9.9668 15.0006 9.9668C13.1248 9.9668 11.3257 10.712 9.99934 12.0384C8.67291 13.3648 7.92773 15.1638 7.92773 17.0397V20.0709H10.959L11.9694 28.1541H18.0318L19.0422 20.0709H22.0735V17.0397Z" stroke="#FF605E" stroke-width="2" stroke-linecap="round" stroke-linejoin="round"/>
</svg>
