<svg width="23" height="21" viewBox="0 0 23 21" fill="none" xmlns="http://www.w3.org/2000/svg">
<path d="M5.872 0.359997L8.112 1.96C7.68533 2.55733 7.17333 3.41066 6.576 4.52C6.02133 5.62933 5.552 6.86666 5.168 8.232C4.784 9.55467 4.63467 10.856 4.72 12.136C5.01867 12.008 5.27467 11.944 5.488 11.944C5.70133 11.9013 5.91467 11.88 6.128 11.88C7.19467 11.88 8.112 12.2 8.88 12.84C9.69067 13.48 10.096 14.44 10.096 15.72C10.096 16.9573 9.69067 18.0027 8.88 18.856C8.112 19.7093 7.088 20.136 5.808 20.136C4.016 20.1787 2.65067 19.5813 1.712 18.344C0.816 17.1067 0.368 15.5707 0.368 13.736C0.368 12.456 0.581333 11.048 1.008 9.512C1.43467 7.976 2.05333 6.41866 2.864 4.84C3.67467 3.26133 4.67733 1.768 5.872 0.359997ZM18.16 0.359997L20.4 1.96C19.9733 2.55733 19.4613 3.41066 18.864 4.52C18.3093 5.62933 17.84 6.86666 17.456 8.232C17.072 9.55467 16.9227 10.856 17.008 12.136C17.3067 12.008 17.5627 11.944 17.776 11.944C17.9893 11.9013 18.2027 11.88 18.416 11.88C19.4827 11.88 20.4 12.2 21.168 12.84C21.9787 13.48 22.384 14.44 22.384 15.72C22.384 16.9573 21.9787 18.0027 21.168 18.856C20.4 19.7093 19.376 20.136 18.096 20.136C16.304 20.1787 14.9387 19.5813 14 18.344C13.104 17.1067 12.656 15.5707 12.656 13.736C12.656 12.456 12.8693 11.048 13.296 9.512C13.7227 7.976 14.3413 6.41866 15.152 4.84C15.9627 3.26133 16.9653 1.768 18.16 0.359997Z" fill="#FF605E"/>
</svg>
