<svg width="30" height="30" viewBox="0 0 30 30" fill="none" xmlns="http://www.w3.org/2000/svg">
<g clip-path="url(#clip0_503_2215)">
<path d="M19.8222 10.7148C22.2376 10.7148 24.554 11.6744 26.2619 13.3823C27.9697 15.0902 28.9293 17.4066 28.9293 19.822C28.9351 21.6147 28.4051 23.3682 27.4079 24.8577L28.9293 28.9291L23.8079 28.0077C22.5761 28.6083 21.2249 28.9233 19.8546 28.9291C18.4843 28.9349 17.1303 28.6313 15.8936 28.0411C14.6569 27.451 13.5694 26.5891 12.712 25.5203C11.8546 24.4514 11.2494 23.2028 10.9417 21.8673C10.6339 20.5321 10.6314 19.1445 10.9344 17.8082C11.2375 16.4718 11.8381 15.221 12.6917 14.149C13.5453 13.077 14.6298 12.2115 15.8644 11.6169C17.099 11.0223 18.4519 10.7139 19.8222 10.7148Z" stroke="#FF605E" stroke-width="2" stroke-linecap="round" stroke-linejoin="round"/>
<path d="M21.1295 5.37838C19.6864 3.5421 17.7067 2.20148 15.4659 1.54318C13.2251 0.884886 10.8349 0.941667 8.62789 1.70562C6.42092 2.46958 4.50709 3.90268 3.15283 5.80541C1.79858 7.70811 1.07133 9.98578 1.07232 12.3212C1.06567 14.5412 1.72231 16.7126 2.95802 18.5569L1.07232 23.5711L5.61517 22.7569" stroke="#FF605E" stroke-width="2" stroke-linecap="round" stroke-linejoin="round"/>
</g>
<defs>
<clipPath id="clip0_503_2215">
<rect width="30" height="30" fill="white"/>
</clipPath>
</defs>
</svg>
