<svg width="25" height="25" viewBox="0 0 25 25" fill="none" xmlns="http://www.w3.org/2000/svg">
<path d="M12.0264 24H11.9736C5.37143 24 0 18.6286 0 12.0264V11.9736C0 5.37142 5.37143 0 11.9736 0H12.0264C18.6286 0 24 5.37142 24 11.9736V12.0264C24 18.6286 18.6286 24 12.0264 24ZM11.9736 0.812375C5.81904 0.812375 0.812375 5.81904 0.812375 11.9736V12.0264C0.812375 18.181 5.81904 23.1876 11.9736 23.1876H12.0264C18.181 23.1876 23.1876 18.181 23.1876 12.0264V11.9736C23.1876 5.81904 18.181 0.812375 12.0264 0.812375H11.9736Z" fill="white"/>
<path d="M13.909 9.72272V12.2484H17.0334L16.5387 15.6506H13.909V23.4892C13.3818 23.5623 12.8424 23.6005 12.2948 23.6005C11.6628 23.6005 11.0421 23.5502 10.4377 23.4527V15.6506H7.55624V12.2484H10.4377V9.15813C10.4377 7.24092 11.9918 5.68604 13.9098 5.68604V5.68766C13.9155 5.68766 13.9204 5.68604 13.9261 5.68604H17.0342V8.62846H15.0033C14.3997 8.62846 13.9098 9.11832 13.9098 9.72191L13.909 9.72272Z" fill="white"/>
</svg>
