<svg width="24" height="24" viewBox="0 0 24 24" fill="none" xmlns="http://www.w3.org/2000/svg">
<path d="M12.0264 24H11.9736C5.37143 24 0 18.6286 0 12.0264V11.9736C0 5.37142 5.37143 0 11.9736 0H12.0264C18.6286 0 24 5.37142 24 11.9736V12.0264C24 18.6286 18.6286 24 12.0264 24ZM11.9736 0.812375C5.81904 0.812375 0.812375 5.81904 0.812375 11.9736V12.0264C0.812375 18.181 5.81904 23.1876 11.9736 23.1876H12.0264C18.181 23.1876 23.1876 18.181 23.1876 12.0264V11.9736C23.1876 5.81904 18.181 0.812375 12.0264 0.812375H11.9736Z" fill="white"/>
<path fill-rule="evenodd" clip-rule="evenodd" d="M10.4574 10.1814H12.6858V11.2914C13.0068 10.653 13.83 10.0794 15.0666 10.0794C17.4372 10.0794 18 11.3502 18 13.6818V18H15.6V14.2128C15.6 12.885 15.279 12.1362 14.4618 12.1362C13.3284 12.1362 12.8574 12.9432 12.8574 14.2122V18H10.4574V10.1814ZM6.342 17.898H8.742V10.0794H6.342V17.898ZM9.0858 7.53C9.08589 7.73117 9.04599 7.93034 8.96843 8.11595C8.89087 8.30156 8.77719 8.46991 8.634 8.6112C8.49038 8.75407 8.32002 8.86724 8.13265 8.94425C7.94528 9.02126 7.74458 9.06059 7.542 9.06C7.13376 9.05908 6.74215 8.89817 6.4512 8.6118C6.30858 8.46999 6.19532 8.30145 6.1179 8.11582C6.04048 7.9302 6.00041 7.73113 6 7.53C6 7.1238 6.162 6.735 6.4518 6.4482C6.74202 6.16073 7.13411 5.99963 7.5426 6C7.9518 6 8.3442 6.1614 8.634 6.4482C8.9238 6.735 9.0858 7.1238 9.0858 7.53Z" fill="white"/>
</svg>
