<svg width="281" height="40" viewBox="0 0 281 40" fill="none" xmlns="http://www.w3.org/2000/svg">
<g clip-path="url(#clip0_151607_63)">
<path d="M13.3742 22.1853C15.4711 22.1853 17.1709 20.4854 17.1709 18.3885C17.1709 16.2916 15.4711 14.5917 13.3742 14.5917C11.2773 14.5917 9.57739 16.2916 9.57739 18.3885C9.57739 20.4854 11.2773 22.1853 13.3742 22.1853Z" stroke="#4380E4" stroke-width="1.34043" stroke-miterlimit="10"/>
<path d="M25.1968 19.0352C27.4886 19.0352 29.3465 17.1773 29.3465 14.8855C29.3465 12.5936 27.4886 10.7357 25.1968 10.7357C22.9049 10.7357 21.047 12.5936 21.047 14.8855C21.047 17.1773 22.9049 19.0352 25.1968 19.0352Z" stroke="#4380E4" stroke-width="1.34043" stroke-miterlimit="10"/>
<path d="M7.25622 33.9386C7.25622 33.9386 5.88675 33.1042 5.97276 30.8154C6.05877 28.5266 6.63963 23.4107 13.0737 23.1582C18.5214 22.9449 20.6896 27.5325 20.951 28.8048C21.2503 30.2647 20.3467 32.2698 18.2936 32.2698C16.2405 32.2698 15.3044 30.7138 15.5289 29.1254C15.7155 27.805 17.2346 20.6337 25.1968 20.6337C33.159 20.6337 34.3352 29.7677 32.0687 33.7666" stroke="#4380E4" stroke-width="1.34043" stroke-miterlimit="10"/>
<path d="M34.1307 3.39355H4.59432C2.42586 3.39355 0.667969 5.15144 0.667969 7.31991V30.0123C0.667969 32.1808 2.42586 33.9387 4.59432 33.9387H34.1307C36.2992 33.9387 38.0571 32.1808 38.0571 30.0123V7.31991C38.0571 5.15144 36.2992 3.39355 34.1307 3.39355Z" stroke="#4380E4" stroke-width="1.34043" stroke-miterlimit="10"/>
<path d="M8.39673 0.670227V6.78037" stroke="#4380E4" stroke-width="1.34043" stroke-miterlimit="10" stroke-linecap="round"/>
<path d="M30.5853 0.670227V6.78037" stroke="#4380E4" stroke-width="1.34043" stroke-miterlimit="10" stroke-linecap="round"/>
</g>
<path d="M273.169 33.8642C271.799 33.8642 270.502 33.6745 269.279 33.2949C268.056 32.8943 267.097 32.3988 266.401 31.8084L267.413 30.0373C268.088 30.5433 268.952 30.9861 270.006 31.3656C271.061 31.7241 272.168 31.9033 273.327 31.9033C274.909 31.9033 276.047 31.6608 276.743 31.1759C277.439 30.6698 277.787 30.0056 277.787 29.1833C277.787 28.5718 277.586 28.0974 277.186 27.76C276.806 27.4016 276.3 27.138 275.668 26.9693C275.035 26.7796 274.329 26.6214 273.549 26.4949C272.768 26.3684 271.988 26.2208 271.208 26.0521C270.449 25.8835 269.753 25.641 269.121 25.3247C268.488 24.9873 267.972 24.534 267.571 23.9647C267.191 23.3954 267.002 22.6363 267.002 21.6875C267.002 20.7808 267.255 19.969 267.761 19.2521C268.267 18.5352 269.005 17.9765 269.975 17.5759C270.966 17.1542 272.168 16.9433 273.58 16.9433C274.656 16.9433 275.731 17.0909 276.806 17.3861C277.882 17.6602 278.767 18.0292 279.463 18.4931L278.483 20.2959C277.745 19.7898 276.954 19.4314 276.111 19.2205C275.267 18.9886 274.424 18.8726 273.58 18.8726C272.083 18.8726 270.976 19.1362 270.259 19.6633C269.564 20.1693 269.216 20.823 269.216 21.6242C269.216 22.2568 269.405 22.7523 269.785 23.1107C270.186 23.4692 270.702 23.7538 271.335 23.9647C271.988 24.1545 272.695 24.3126 273.454 24.4391C274.234 24.5656 275.004 24.7238 275.763 24.9135C276.543 25.0822 277.249 25.3247 277.882 25.641C278.535 25.9362 279.052 26.3684 279.431 26.9377C279.832 27.4859 280.032 28.2134 280.032 29.12C280.032 30.09 279.758 30.9334 279.21 31.6503C278.683 32.3461 277.903 32.8943 276.87 33.2949C275.857 33.6745 274.624 33.8642 273.169 33.8642Z" fill="#4380E4"/>
<path d="M256.675 33.8642C254.946 33.8642 253.428 33.5058 252.12 32.7889C250.813 32.0509 249.79 31.0493 249.052 29.7842C248.314 28.498 247.945 27.0326 247.945 25.3879C247.945 23.7433 248.293 22.2884 248.989 21.0233C249.706 19.7582 250.676 18.7672 251.899 18.0503C253.143 17.3123 254.535 16.9433 256.074 16.9433C257.634 16.9433 259.015 17.3017 260.217 18.0186C261.44 18.7145 262.399 19.7055 263.095 20.9917C263.791 22.2568 264.139 23.7222 264.139 25.3879C264.139 25.4934 264.128 25.6093 264.107 25.7359C264.107 25.8413 264.107 25.9573 264.107 26.0838H249.653V24.4075H262.905L262.02 25.0717C262.02 23.8698 261.756 22.805 261.229 21.8773C260.723 20.9284 260.027 20.1904 259.142 19.6633C258.256 19.1362 257.234 18.8726 256.074 18.8726C254.935 18.8726 253.913 19.1362 253.006 19.6633C252.099 20.1904 251.393 20.9284 250.887 21.8773C250.381 22.8261 250.128 23.912 250.128 25.1349V25.4828C250.128 26.748 250.402 27.8655 250.95 28.8354C251.519 29.7842 252.3 30.5328 253.291 31.081C254.303 31.6081 255.452 31.8717 256.738 31.8717C257.75 31.8717 258.688 31.6924 259.553 31.334C260.438 30.9755 261.198 30.4273 261.83 29.6893L263.095 31.1442C262.357 32.0298 261.429 32.7045 260.312 33.1684C259.216 33.6323 258.003 33.8642 256.675 33.8642Z" fill="#4380E4"/>
<path d="M242.61 33.8642C241.05 33.8642 239.848 33.4425 239.004 32.5991C238.161 31.7557 237.739 30.5643 237.739 29.0251V13.4326H239.985V28.8986C239.985 29.8685 240.227 30.6171 240.712 31.1442C241.218 31.6713 241.935 31.9349 242.863 31.9349C243.854 31.9349 244.676 31.6502 245.33 31.0809L246.121 32.694C245.678 33.0946 245.14 33.3898 244.508 33.5795C243.896 33.7693 243.264 33.8642 242.61 33.8642ZM234.766 18.9674V17.1014H245.045V18.9674H234.766Z" fill="#4380E4"/>
<path d="M229.11 33.7061V30.0373L229.015 29.4363V23.3005C229.015 21.8878 228.614 20.8019 227.813 20.0428C227.033 19.2838 225.863 18.9042 224.302 18.9042C223.227 18.9042 222.204 19.0835 221.234 19.4419C220.264 19.8004 219.442 20.2748 218.767 20.8652L217.755 19.1889C218.599 18.472 219.611 17.9238 220.792 17.5442C221.972 17.1436 223.216 16.9433 224.524 16.9433C226.674 16.9433 228.33 17.481 229.489 18.5563C230.67 19.6106 231.26 21.2236 231.26 23.3954V33.7061H229.11ZM223.385 33.8642C222.141 33.8642 221.055 33.6639 220.127 33.2633C219.221 32.8416 218.525 32.2723 218.04 31.5554C217.555 30.8174 217.312 29.974 217.312 29.0252C217.312 28.1607 217.513 27.3805 217.913 26.6847C218.335 25.9678 219.01 25.3985 219.938 24.9768C220.886 24.534 222.152 24.3126 223.733 24.3126H229.458V25.9889H223.796C222.194 25.9889 221.076 26.2735 220.444 26.8428C219.832 27.4121 219.526 28.1185 219.526 28.9619C219.526 29.9107 219.895 30.6698 220.633 31.2391C221.371 31.8084 222.405 32.0931 223.733 32.0931C224.998 32.0931 226.084 31.8084 226.991 31.2391C227.918 30.6487 228.593 29.8053 229.015 28.7089L229.521 30.2586C229.099 31.3551 228.361 32.2301 227.307 32.8838C226.274 33.5374 224.966 33.8642 223.385 33.8642Z" fill="#4380E4"/>
<path d="M203.879 33.8642C202.298 33.8642 200.874 33.5058 199.609 32.7889C198.365 32.072 197.385 31.0809 196.668 29.8158C195.951 28.5296 195.593 27.0537 195.593 25.3879C195.593 23.7011 195.951 22.2251 196.668 20.96C197.385 19.6949 198.365 18.7144 199.609 18.0186C200.874 17.3017 202.298 16.9433 203.879 16.9433C205.334 16.9433 206.631 17.2701 207.769 17.9237C208.929 18.5774 209.846 19.5368 210.521 20.8019C211.217 22.0459 211.565 23.5746 211.565 25.3879C211.565 27.1802 211.227 28.7089 210.553 29.974C209.878 31.2391 208.961 32.209 207.801 32.8837C206.662 33.5374 205.355 33.8642 203.879 33.8642ZM204.037 31.8716C205.218 31.8716 206.272 31.6081 207.2 31.081C208.149 30.5327 208.887 29.7737 209.414 28.8037C209.962 27.8127 210.236 26.6741 210.236 25.3879C210.236 24.0806 209.962 22.942 209.414 21.9721C208.887 21.0022 208.149 20.2537 207.2 19.7265C206.272 19.1783 205.218 18.9042 204.037 18.9042C202.877 18.9042 201.834 19.1783 200.906 19.7265C199.978 20.2537 199.24 21.0022 198.692 21.9721C198.144 22.942 197.87 24.0806 197.87 25.3879C197.87 26.6741 198.144 27.8127 198.692 28.8037C199.24 29.7737 199.978 30.5327 200.906 31.081C201.834 31.6081 202.877 31.8716 204.037 31.8716ZM210.3 33.7061V28.7089L210.521 25.3563L210.205 22.0037V10.2382H212.45V33.7061H210.3Z" fill="#4380E4"/>
<path d="M180.717 40C179.936 40 179.188 39.8735 178.471 39.6205C177.775 39.3674 177.174 38.9879 176.668 38.4818L177.712 36.8056C178.134 37.2062 178.587 37.5119 179.072 37.7228C179.578 37.9547 180.137 38.0707 180.748 38.0707C181.486 38.0707 182.119 37.8598 182.646 37.4381C183.194 37.0375 183.711 36.3206 184.196 35.2874L185.271 32.8521L185.524 32.5042L192.356 17.1014H194.57L186.251 35.6986C185.788 36.7739 185.271 37.6279 184.702 38.2605C184.153 38.893 183.553 39.3358 182.899 39.5888C182.245 39.8629 181.518 40 180.717 40ZM185.144 34.1804L177.491 17.1014H179.831L186.599 32.346L185.144 34.1804Z" fill="#4380E4"/>
<path d="M172.649 33.7061V30.0373L172.554 29.4363V23.3005C172.554 21.8878 172.154 20.8019 171.352 20.0428C170.572 19.2838 169.402 18.9042 167.842 18.9042C166.766 18.9042 165.744 19.0835 164.774 19.4419C163.804 19.8004 162.981 20.2748 162.307 20.8652L161.295 19.1889C162.138 18.472 163.15 17.9238 164.331 17.5442C165.512 17.1436 166.756 16.9433 168.063 16.9433C170.214 16.9433 171.869 17.481 173.029 18.5563C174.209 19.6106 174.8 21.2236 174.8 23.3954V33.7061H172.649ZM166.924 33.8642C165.68 33.8642 164.594 33.6639 163.667 33.2633C162.76 32.8416 162.064 32.2723 161.579 31.5554C161.094 30.8174 160.852 29.974 160.852 29.0252C160.852 28.1607 161.052 27.3805 161.453 26.6847C161.874 25.9678 162.549 25.3985 163.477 24.9768C164.426 24.534 165.691 24.3126 167.272 24.3126H172.997V25.9889H167.336C165.733 25.9889 164.616 26.2735 163.983 26.8428C163.371 27.4121 163.066 28.1185 163.066 28.9619C163.066 29.9107 163.435 30.6698 164.173 31.2391C164.911 31.8084 165.944 32.0931 167.272 32.0931C168.537 32.0931 169.623 31.8084 170.53 31.2391C171.458 30.6487 172.132 29.8053 172.554 28.7089L173.06 30.2586C172.638 31.3551 171.9 32.2301 170.846 32.8838C169.813 33.5374 168.506 33.8642 166.924 33.8642Z" fill="#4380E4"/>
<path d="M153.75 33.7061V10.2382H155.995V33.7061H153.75Z" fill="#4380E4"/>
<path d="M131.522 33.7061V11.5665H139.809C141.685 11.5665 143.298 11.8723 144.648 12.4837C145.997 13.0741 147.031 13.9386 147.747 15.0772C148.485 16.1947 148.854 17.5547 148.854 19.1572C148.854 20.7175 148.485 22.067 147.747 23.2056C147.031 24.3231 145.997 25.1876 144.648 25.7991C143.298 26.4106 141.685 26.7163 139.809 26.7163H132.819L133.863 25.6093V33.7061H131.522ZM133.863 25.7991L132.819 24.6605H139.746C141.96 24.6605 143.636 24.1861 144.774 23.2372C145.934 22.2673 146.514 20.9073 146.514 19.1572C146.514 17.3861 145.934 16.0155 144.774 15.0456C143.636 14.0757 141.96 13.5907 139.746 13.5907H132.819L133.863 12.4837V25.7991Z" fill="#4380E4"/>
<path d="M117.987 33.8642C116.385 33.8642 114.94 33.5058 113.654 32.7889C112.389 32.0509 111.387 31.0493 110.649 29.7842C109.911 28.498 109.542 27.0326 109.542 25.3879C109.542 23.7222 109.911 22.2568 110.649 20.9917C111.387 19.7266 112.389 18.7355 113.654 18.0186C114.919 17.3017 116.364 16.9433 117.987 16.9433C119.632 16.9433 121.087 17.3017 122.352 18.0186C123.638 18.7355 124.64 19.7266 125.356 20.9917C126.094 22.2568 126.463 23.7222 126.463 25.3879C126.463 27.0326 126.094 28.498 125.356 29.7842C124.64 31.0493 123.638 32.0509 122.352 32.7889C121.066 33.5058 119.611 33.8642 117.987 33.8642ZM117.987 31.8717C119.189 31.8717 120.254 31.6081 121.182 31.081C122.109 30.5328 122.837 29.7737 123.364 28.8038C123.912 27.8128 124.186 26.6742 124.186 25.3879C124.186 24.0807 123.912 22.9421 123.364 21.9721C122.837 21.0022 122.109 20.2537 121.182 19.7266C120.254 19.1783 119.2 18.9042 118.019 18.9042C116.838 18.9042 115.784 19.1783 114.856 19.7266C113.928 20.2537 113.19 21.0022 112.642 21.9721C112.094 22.9421 111.82 24.0807 111.82 25.3879C111.82 26.6742 112.094 27.8128 112.642 28.8038C113.19 29.7737 113.928 30.5328 114.856 31.081C115.784 31.6081 116.827 31.8717 117.987 31.8717Z" fill="#4380E4"/>
<path d="M102.725 33.7061V10.2382H104.97V33.7061H102.725Z" fill="#4380E4"/>
<path d="M94.2311 33.7061V10.2382H96.4767V33.7061H94.2311Z" fill="#4380E4"/>
<path d="M82.1962 33.8642C80.4672 33.8642 78.9491 33.5058 77.6418 32.7889C76.3345 32.0509 75.3119 31.0493 74.5739 29.7842C73.8359 28.498 73.4669 27.0326 73.4669 25.3879C73.4669 23.7433 73.8148 22.2884 74.5106 21.0233C75.2275 19.7582 76.1975 18.7672 77.4204 18.0503C78.6644 17.3123 80.0561 16.9433 81.5953 16.9433C83.1556 16.9433 84.5367 17.3017 85.7385 18.0186C86.9615 18.7145 87.9209 19.7055 88.6167 20.9917C89.3125 22.2568 89.6604 23.7222 89.6604 25.3879C89.6604 25.4934 89.6499 25.6093 89.6288 25.7359C89.6288 25.8413 89.6288 25.9573 89.6288 26.0838H75.1748V24.4075H88.4269L87.5413 25.0717C87.5413 23.8698 87.2778 22.805 86.7506 21.8773C86.2446 20.9284 85.5488 20.1904 84.6632 19.6633C83.7776 19.1362 82.755 18.8726 81.5953 18.8726C80.4567 18.8726 79.4341 19.1362 78.5274 19.6633C77.6207 20.1904 76.9144 20.9284 76.4083 21.8773C75.9023 22.8261 75.6492 23.912 75.6492 25.1349V25.4828C75.6492 26.748 75.9234 27.8655 76.4716 28.8354C77.0409 29.7842 77.821 30.5328 78.812 31.081C79.8241 31.6081 80.9733 31.8717 82.2595 31.8717C83.2716 31.8717 84.2099 31.6924 85.0744 31.334C85.9599 30.9755 86.719 30.4273 87.3516 29.6893L88.6167 31.1442C87.8787 32.0298 86.951 32.7045 85.8334 33.1684C84.737 33.6323 83.5246 33.8642 82.1962 33.8642Z" fill="#4380E4"/>
<path d="M66.0825 11.5665H68.3914V33.7061H66.0825V11.5665ZM52.2295 33.7061H49.889V11.5665H52.2295V33.7061ZM66.3039 23.4903H51.9765V21.4344H66.3039V23.4903Z" fill="#4380E4"/>
<defs>
<clipPath id="clip0_151607_63">
<rect width="38.7262" height="34.6066" fill="white"/>
</clipPath>
</defs>
</svg>
