<?xml version="1.0" encoding="UTF-8"?>
<svg width="50" height="50" id="Layer_1" data-name="Layer 1" xmlns="http://www.w3.org/2000/svg" viewBox="0 0 50 50">
  <defs>
    <style>
      .cls-1 {
        fill: #e7e2d5;
        stroke-width: 0px;
      }
    </style>
  </defs>
  <path class="cls-1" d="m16,3c-7.17,0-13,5.83-13,13v18c0,7.17,5.83,13,13,13h18c7.17,0,13-5.83,13-13v-18c0-7.17-5.83-13-13-13h-18Zm21,8c1.1,0,2,.9,2,2s-.9,2-2,2-2-.9-2-2,.9-2,2-2Zm-12,3c6.07,0,11,4.93,11,11s-4.93,11-11,11-11-4.93-11-11,4.93-11,11-11Zm0,2c-4.96,0-9,4.04-9,9s4.04,9,9,9,9-4.04,9-9-4.04-9-9-9Z"/>
</svg>