<svg width="156" height="160" viewBox="0 0 156 160" fill="none" xmlns="http://www.w3.org/2000/svg">
<path fill-rule="evenodd" clip-rule="evenodd" d="M102.534 92.1213C121.116 92.1213 136.18 77.0572 136.18 58.4747C136.18 39.8922 121.116 24.8281 102.534 24.8281C83.9513 24.8281 68.8872 39.8922 68.8872 58.4747C68.8872 77.0572 83.9513 92.1213 102.534 92.1213ZM102.534 106.259C128.924 106.259 150.318 84.865 150.318 58.4747C150.318 32.0845 128.924 10.6909 102.534 10.6909C76.1435 10.6909 54.75 32.0845 54.75 58.4747C54.75 84.865 76.1435 106.259 102.534 106.259Z" fill="#576280"/>
<path d="M155.987 10.7716C155.987 16.7206 151.164 21.5432 145.215 21.5432C139.266 21.5432 134.443 16.7206 134.443 10.7716C134.443 4.82261 139.266 0 145.215 0C151.164 0 155.987 4.82261 155.987 10.7716Z" fill="#576280"/>
<path fill-rule="evenodd" clip-rule="evenodd" d="M145.215 7.37005C143.336 7.37005 141.813 8.89298 141.813 10.7716C141.813 12.6502 143.336 14.1732 145.215 14.1732C147.094 14.1732 148.617 12.6502 148.617 10.7716C148.617 8.89298 147.094 7.37005 145.215 7.37005ZM145.215 21.5432C151.164 21.5432 155.987 16.7206 155.987 10.7716C155.987 4.82261 151.164 0 145.215 0C139.266 0 134.443 4.82261 134.443 10.7716C134.443 16.7206 139.266 21.5432 145.215 21.5432Z" fill="#576280"/>
<path fill-rule="evenodd" clip-rule="evenodd" d="M127.133 127.184H77.935C72.9381 127.184 68.8872 131.231 68.8872 136.224C68.8872 141.216 72.9381 145.263 77.935 145.263H127.133C132.13 145.263 136.18 141.216 136.18 136.224C136.18 131.231 132.13 127.184 127.133 127.184ZM77.935 113.061C65.1303 113.061 54.75 123.431 54.75 136.224C54.75 149.016 65.1303 159.387 77.935 159.387H127.133C139.937 159.387 150.318 149.016 150.318 136.224C150.318 123.431 139.937 113.061 127.133 113.061H77.935Z" fill="#576280"/>
<path d="M0 7.06409C0 3.1627 3.15464 0 7.04609 0V0C10.9375 0 14.0922 3.1627 14.0922 7.06408V120.089C14.0922 123.991 10.9375 127.154 7.04609 127.154V127.154C3.15464 127.154 0 123.991 0 120.089V7.06409Z" fill="#576280"/>
<path d="M7.06236 127.154C3.16193 127.154 0 123.999 0 120.108V120.108C0 116.216 3.16193 113.062 7.06236 113.062H111.02C114.921 113.062 118.083 116.216 118.083 120.108V120.108C118.083 123.999 114.921 127.154 111.02 127.154H7.06236Z" fill="#576280"/>
<path d="M70.2416 130.843C67.7815 133.871 63.3322 134.332 60.3039 131.872V131.872C57.2756 129.412 56.815 124.962 59.2752 121.934L81.7627 94.2533C84.2229 91.225 88.6721 90.7645 91.7004 93.2246V93.2246C94.7287 95.6848 95.1893 100.134 92.7291 103.162L70.2416 130.843Z" fill="#576280"/>
</svg>
