<?xml version="1.0" encoding="UTF-8"?>
<svg width="50" height="50" id="Layer_1" data-name="Layer 1" xmlns="http://www.w3.org/2000/svg" viewBox="0 0 50 50">
  <defs>
    <style>
      .cls-1 {
        fill: #e7e2d5;
        stroke-width: 0px;
      }
    </style>
  </defs>
  <path class="cls-1" d="m41,4H9c-2.76,0-5,2.24-5,5v32c0,2.76,2.24,5,5,5h32c2.76,0,5-2.24,5-5V9c0-2.76-2.24-5-5-5Zm-24,16v19h-6v-19h6Zm-6-5.53c0-1.4,1.2-2.47,3-2.47s2.93,1.07,3,2.47c0,1.4-1.12,2.53-3,2.53s-3-1.13-3-2.53Zm28,24.53h-6v-10c0-2-1-4-3.5-4.04h-.08c-2.42,0-3.42,2.06-3.42,4.04v10h-6v-19h6v2.56s1.93-2.56,5.81-2.56,7.19,2.73,7.19,8.26v10.74Z"/>
</svg>