<?xml version="1.0" encoding="UTF-8"?>
<svg width="50" height="50" id="Layer_1" data-name="Layer 1" xmlns="http://www.w3.org/2000/svg" viewBox="0 0 48 48">
  <defs>
    <style>
      .cls-1 {
        fill: #576280;
      }

      .cls-1, .cls-2 {
        fill-rule: evenodd;
        stroke-width: 0px;
      }

      .cls-2 {
        fill: #e7e2d5;
      }
    </style>
  </defs>
  <path class="cls-2" d="m11.55,11.1c1.23,1,1.69.93,4.01.77l21.81-1.31c.46,0,.08-.46-.08-.54l-3.62-2.62c-.69-.54-1.62-1.16-3.39-1l-21.12,1.54c-.77.08-.92.46-.62.77l3.01,2.39Z"/>
  <path class="cls-2" d="m12.86,16.18v22.95c0,1.23.62,1.69,2,1.62l23.97-1.39c1.39-.08,1.54-.92,1.54-1.93V14.64c0-1-.38-1.54-1.23-1.46l-25.05,1.46c-.93.08-1.23.54-1.23,1.54h0Z"/>
  <path class="cls-1" d="m11.55,11.1c1.23,1,1.69.93,4.01.77l21.81-1.31c.46,0,.08-.46-.08-.54l-3.62-2.62c-.69-.54-1.62-1.16-3.39-1l-21.12,1.54c-.77.08-.92.46-.62.77l3.01,2.39Zm1.31,5.08v22.95c0,1.23.62,1.69,2,1.62l23.97-1.39c1.39-.08,1.54-.92,1.54-1.93V14.64c0-1-.38-1.54-1.23-1.46l-25.05,1.46c-.93.08-1.23.54-1.23,1.54h0Zm23.66,1.23c.15.69,0,1.39-.69,1.47l-1.15.23v16.94c-1,.54-1.93.85-2.7.85-1.23,0-1.54-.38-2.47-1.54l-7.56-11.86v11.47l2.39.54s0,1.39-1.93,1.39l-5.32.31c-.15-.31,0-1.08.54-1.23l1.39-.38v-15.17l-1.93-.15c-.16-.69.23-1.69,1.31-1.77l5.7-.39,7.86,12.02v-10.63l-2.01-.23c-.15-.85.46-1.46,1.23-1.54l5.32-.31ZM7.39,5.86l21.97-1.62c2.7-.23,3.39-.08,5.09,1.16l7.01,4.93c1.16.85,1.54,1.08,1.54,2v27.03c0,1.69-.62,2.7-2.78,2.85l-25.51,1.54c-1.62.08-2.39-.15-3.24-1.23l-5.16-6.7c-.92-1.23-1.31-2.16-1.31-3.24V8.56c0-1.38.62-2.54,2.39-2.69Z"/>
</svg>