<svg width="30" height="30" viewBox="0 0 30 30" fill="none" xmlns="http://www.w3.org/2000/svg">
<g clip-path="url(#clip0_503_2212)">
<path d="M10.7151 26.2293L1.07227 28.9293L3.77227 19.2865L21.4294 1.71504C21.6289 1.51095 21.8674 1.34878 22.1303 1.23806C22.3935 1.12734 22.6761 1.07031 22.9616 1.07031C23.247 1.07031 23.5296 1.12734 23.7928 1.23806C24.0557 1.34878 24.2942 1.51095 24.4937 1.71504L28.2866 5.52933C28.4873 5.72853 28.6468 5.96555 28.7556 6.22666C28.8645 6.48779 28.9204 6.76788 28.9204 7.05076C28.9204 7.33364 28.8645 7.61373 28.7556 7.87486C28.6468 8.13599 28.4873 8.37299 28.2866 8.57219L10.7151 26.2293Z" stroke="#FF605E" stroke-width="2" stroke-linecap="round" stroke-linejoin="round"/>
</g>
<defs>
<clipPath id="clip0_503_2212">
<rect width="30" height="30" fill="white"/>
</clipPath>
</defs>
</svg>
