<svg width="23" height="21" viewBox="0 0 23 21" fill="none" xmlns="http://www.w3.org/2000/svg">
<path d="M4.632 20.136L2.392 18.536C2.86133 17.9387 3.37333 17.0853 3.928 15.976C4.48267 14.8667 4.952 13.6507 5.336 12.328C5.72 10.9627 5.86933 9.66133 5.784 8.424C5.48533 8.50933 5.22933 8.57333 5.016 8.616C4.80267 8.65866 4.58933 8.68 4.376 8.68C3.30933 8.68 2.37067 8.36 1.56 7.72C0.792 7.03733 0.408 6.056 0.408 4.776C0.408 3.53866 0.792 2.49333 1.56 1.64C2.37067 0.786664 3.416 0.359997 4.696 0.359997C6.488 0.317331 7.832 0.935998 8.728 2.216C9.66667 3.45333 10.136 4.968 10.136 6.76C10.136 8.04 9.92267 9.448 9.496 10.984C9.06933 12.52 8.45067 14.0773 7.64 15.656C6.82933 17.2347 5.82667 18.728 4.632 20.136ZM16.92 20.136L14.68 18.536C15.1493 17.9387 15.6613 17.0853 16.216 15.976C16.7707 14.8667 17.24 13.6507 17.624 12.328C18.008 10.9627 18.1573 9.66133 18.072 8.424C17.7733 8.50933 17.5173 8.57333 17.304 8.616C17.0907 8.65866 16.8773 8.68 16.664 8.68C15.5973 8.68 14.6587 8.36 13.848 7.72C13.08 7.03733 12.696 6.056 12.696 4.776C12.696 3.53866 13.08 2.49333 13.848 1.64C14.6587 0.786664 15.704 0.359997 16.984 0.359997C18.776 0.317331 20.12 0.935998 21.016 2.216C21.9547 3.45333 22.424 4.968 22.424 6.76C22.424 8.04 22.2107 9.448 21.784 10.984C21.3573 12.52 20.7387 14.0773 19.928 15.656C19.1173 17.2347 18.1147 18.728 16.92 20.136Z" fill="#FF605E"/>
</svg>
